<svg width="96" height="56" viewBox="0 0 96 56" fill="none" xmlns="http://www.w3.org/2000/svg">
<g clip-path="url(#clip0_280_29)">
<path d="M95.9149 0V28.6572C95.8151 28.6572 95.7153 28.6489 95.6155 28.6489H0V0H95.6155C95.7153 0 95.8118 0 95.9149 0ZM44.9301 5.80844H42.9955C42.9158 5.80619 42.8361 5.81231 42.7577 5.8267C42.5398 5.87482 42.4965 5.96278 42.6246 6.14367C42.6775 6.20878 42.7079 6.28922 42.7112 6.37297C42.7145 6.45673 42.6905 6.5393 42.6429 6.60835C40.0114 11.6069 37.3854 16.6077 34.765 21.6107C34.6702 21.7933 34.5638 21.9692 34.4806 22.1567C34.3974 22.3442 34.459 22.4538 34.6702 22.4538C35.9411 22.4538 37.2113 22.4538 38.4811 22.4538C38.7006 22.4538 38.7439 22.3758 38.6474 22.1799C38.5867 22.0847 38.5513 21.9756 38.5446 21.8629C38.5379 21.7503 38.5601 21.6378 38.6091 21.536C39.1747 20.4197 39.7391 19.3023 40.3025 18.1837C40.3204 18.1383 40.3526 18.0999 40.3944 18.0745C40.4361 18.049 40.485 18.0379 40.5337 18.0427C42.2947 18.0427 44.0562 18.0427 45.8183 18.0427C45.9713 18.0427 46.0163 18.1074 46.0279 18.2368C46.0429 18.4028 46.0595 18.5688 46.0795 18.7347C46.1826 19.5479 46.2824 20.3611 46.3922 21.1726C46.4299 21.4738 46.4855 21.7725 46.5585 22.0671C46.5799 22.1838 46.6436 22.2886 46.7375 22.3615C46.8314 22.4343 46.9489 22.4701 47.0675 22.4621C48.2496 22.4621 49.4329 22.4621 50.6172 22.4621C50.695 22.4473 50.7697 22.4199 50.8385 22.3808C50.8014 22.3014 50.7586 22.2249 50.7104 22.1517C50.678 22.1188 50.638 22.0943 50.5939 22.0804C50.4608 22.018 50.3467 21.9216 50.2631 21.8009C50.1796 21.6802 50.1295 21.5396 50.1182 21.3933C50.0001 20.6233 49.872 19.8549 49.7473 19.0865C49.5676 17.9713 49.3846 16.8578 49.205 15.7442C49.0387 14.7136 48.8723 13.683 48.706 12.6541C48.5396 11.6252 48.3733 10.6079 48.207 9.58559C48.0406 8.5633 47.8743 7.51446 47.6913 6.48056C47.6015 5.9661 47.4002 5.81674 46.8762 5.81674L44.9301 5.80844ZM25.267 5.80844C24.8212 5.80844 24.3754 5.80844 23.9363 5.80844C23.7915 5.82949 23.6494 5.86565 23.5121 5.91631C23.5567 6.04747 23.6123 6.1746 23.6785 6.29635C23.7241 6.35157 23.7567 6.41639 23.7737 6.48594C23.7907 6.55549 23.7917 6.62797 23.7766 6.69796C23.7034 7.01992 23.6618 7.34851 23.6103 7.67544C23.3353 9.30733 23.0614 10.937 22.7886 12.5645C22.5124 14.2141 22.2352 15.8637 21.9569 17.5133C21.8992 17.989 21.7135 18.4403 21.4196 18.8193C20.706 19.6856 19.4235 20.0159 18.299 19.6275C17.5173 19.3554 16.8269 18.7148 17.0598 17.5465C17.3426 16.1259 17.5988 14.7003 17.8666 13.2781C18.1793 11.6185 18.4953 9.95899 18.8047 8.30773C18.9062 7.76837 19.001 7.22736 19.0775 6.68468C19.1474 6.18682 18.9195 5.88976 18.4537 5.81342C18.3941 5.80648 18.3341 5.80371 18.2741 5.80512H15.4463C15.3986 5.80272 15.3508 5.80383 15.3033 5.80844C15.0837 5.83997 15.0321 5.9495 15.1469 6.14035C15.18 6.19944 15.219 6.25505 15.2633 6.30631C15.3127 6.36402 15.3472 6.43291 15.3637 6.50697C15.3802 6.58103 15.3783 6.658 15.3582 6.73115C15.1203 8.0588 14.8891 9.40138 14.6562 10.7357C14.41 12.1562 14.1572 13.5752 13.9193 14.9974C13.7397 16.0661 13.5467 17.1349 13.4203 18.2103C13.3168 19.1397 13.5345 20.0765 14.0374 20.8656C14.8791 22.2248 16.1649 22.857 17.7119 23.0047C18.9206 23.1236 20.1402 22.9488 21.2666 22.4953C23.3159 21.6655 24.7297 20.2383 25.2587 18.0692C25.5914 16.6835 25.8159 15.2696 26.0904 13.8672C26.3776 12.3482 26.661 10.828 26.9404 9.30678C27.1067 8.41726 27.2731 7.52774 27.4128 6.63324C27.496 6.09222 27.2199 5.80346 26.6659 5.80346C26.1969 5.80844 25.7311 5.80844 25.267 5.80844ZM82.4879 15.3642C82.433 14.9177 82.4114 14.4647 82.3216 14.0365C81.9274 12.2558 80.8844 11.0244 79.1395 10.427C78.0603 10.077 76.9131 9.98829 75.7928 10.1681C73.9098 10.422 72.3296 11.2634 71.1519 12.762C69.6997 14.6057 69.1259 16.6968 69.6349 19.0085C70.0274 20.7975 71.1036 22.0422 72.8768 22.6181C73.969 22.9498 75.127 23.0034 76.2452 22.7741C77.9846 22.4503 79.5573 21.5339 80.6944 20.1814C81.8316 18.8289 82.4626 17.1244 82.4796 15.3592L82.4879 15.3642ZM57.2109 22.4571H60.1834C60.561 22.4571 60.5843 22.4305 60.6475 22.0522C60.8216 20.9967 60.9985 19.9412 61.1781 18.8857L61.8784 14.77C62.1002 13.4623 62.322 12.1535 62.5438 10.8435C62.5887 10.578 62.5438 10.5116 62.2643 10.5116C61.2663 10.5116 60.2683 10.5116 59.2702 10.5116C59.1397 10.5315 59.0126 10.5695 58.8926 10.6245C58.9425 10.7406 58.9958 10.8568 59.044 10.973C59.0922 11.0891 59.1821 11.202 59.1721 11.3049C59.1438 11.6053 59.0739 11.904 59.019 12.2027C58.7163 13.8855 58.4125 15.5683 58.1075 17.2511C57.9678 18.0111 57.8131 18.7679 57.6684 19.528C57.6656 19.5613 57.6559 19.5938 57.64 19.6232C57.6241 19.6527 57.6023 19.6786 57.5759 19.6993C57.5495 19.72 57.5192 19.7351 57.4867 19.7436C57.4543 19.7521 57.4204 19.7538 57.3873 19.7487C56.5971 19.7371 55.8054 19.7487 55.0152 19.7288C54.1536 19.7039 53.6579 19.065 53.8076 18.2352C53.8608 17.9298 53.9163 17.6245 53.974 17.3191C54.2867 15.7326 54.6044 14.1477 54.9154 12.5595C55.0103 12.0733 55.1084 11.587 55.16 11.0958C55.2049 10.656 55.0369 10.5017 54.6011 10.5C53.6962 10.5 52.7913 10.5 51.8881 10.5C51.7506 10.5198 51.6163 10.5577 51.4888 10.6129C51.5437 10.734 51.6036 10.8551 51.6552 10.9796C51.7067 11.1041 51.7799 11.212 51.76 11.3115C51.399 13.2764 51.0114 15.238 50.6305 17.2013C50.4428 18.0425 50.3956 18.9088 50.4908 19.7653C50.6422 20.8573 51.2061 21.6406 52.2407 22.0638C52.9098 22.3237 53.6219 22.4559 54.3399 22.4538C55.2964 22.467 56.2545 22.4571 57.2109 22.4571ZM32.082 13.1901C32.0321 13.2499 32.0088 13.2798 31.9838 13.3063C29.8979 15.4914 27.8131 17.6781 25.7294 19.8665C25.6074 19.9951 25.5193 20.1519 25.4733 20.3229C25.3602 20.7776 25.2903 21.2423 25.1872 21.7003C25.0591 22.2745 25.2454 22.4023 25.7893 22.4538H25.8492C28.3354 22.4538 30.8222 22.4538 33.3096 22.4538C33.3385 22.4585 33.3682 22.457 33.3965 22.4494C33.4248 22.4417 33.4512 22.428 33.4737 22.4093C33.4963 22.3905 33.5146 22.3672 33.5273 22.3408C33.54 22.3144 33.5469 22.2856 33.5474 22.2563C33.6822 21.5493 33.8202 20.8423 33.955 20.1354C34.0281 19.7587 34.0132 19.7421 33.6223 19.7421C32.1807 19.7421 30.7391 19.7421 29.2974 19.7421H29.0263C30.0559 18.6434 31.0423 17.5946 32.0287 16.5441C33.1183 15.3824 34.2144 14.2207 35.2923 13.059C35.4891 12.853 35.6374 12.6058 35.7265 12.3355C35.8374 11.9074 35.9141 11.4712 35.956 11.0311C35.9926 10.7456 35.8679 10.6012 35.5834 10.5332C35.5002 10.5117 35.4148 10.5 35.3289 10.4983C32.7495 10.4983 30.1696 10.4945 27.5891 10.4867C27.4477 10.4867 27.3845 10.5349 27.3579 10.6693C27.2115 11.4282 27.0624 12.1867 26.9105 12.9445C26.8739 13.1238 26.9105 13.1901 27.1084 13.1885C28.6853 13.1885 30.2605 13.1885 31.8358 13.1885L32.082 13.1901ZM69.0693 19.7686C68.7666 19.7421 68.4838 19.7271 68.2043 19.6923C67.2994 19.5794 66.9002 19.0484 67.0649 18.1622C67.2762 17.0254 67.5024 15.8919 67.7303 14.7568C67.8301 14.239 67.9365 13.7229 68.043 13.1901H68.2725C68.725 13.1901 69.1774 13.1901 69.6282 13.1901C69.8104 13.205 69.9913 13.1479 70.1318 13.0313C70.2724 12.9146 70.3615 12.7476 70.3801 12.5661C70.4632 12.1662 70.5464 11.7646 70.6179 11.3613C70.7194 10.7954 70.4882 10.5133 69.911 10.5017C69.545 10.5017 69.1791 10.5017 68.8131 10.5017H68.5753C68.6934 9.89758 68.8032 9.32836 68.908 8.75913C69.0127 8.1899 69.1358 7.60906 69.2556 7.00664C69.0028 7.00664 68.7782 7.00664 68.5536 7.00664C68.3534 6.99923 68.1548 7.04608 67.9791 7.14222C67.8034 7.23835 67.657 7.38018 67.5556 7.55263C67.4373 7.75164 67.3339 7.9591 67.2462 8.17331C67.0799 8.55998 66.9352 8.96325 66.7472 9.33499C66.5848 9.67119 66.3304 9.95474 66.0134 10.1529C65.6965 10.3511 65.3298 10.4559 64.9557 10.4552C64.4767 10.4768 63.9976 10.4801 63.5202 10.4817C63.4004 10.4817 63.3406 10.5183 63.3173 10.6477C63.1659 11.4393 63.0145 12.2309 62.8548 13.0209C62.8282 13.1503 62.8648 13.1868 62.9863 13.1868C63.1526 13.1868 63.3056 13.1868 63.4653 13.1868C63.818 13.1968 64.1706 13.1968 64.5199 13.2217C64.5655 13.2194 64.6111 13.2281 64.6526 13.2471C64.6942 13.2661 64.7305 13.2948 64.7586 13.3308C64.7866 13.3668 64.8056 13.409 64.8139 13.4538C64.8221 13.4987 64.8194 13.5448 64.806 13.5884C64.6064 14.6124 64.3985 15.6363 64.2022 16.6603C64.0259 17.583 63.8313 18.5007 63.7032 19.4301C63.6497 19.8127 63.685 20.2025 63.8064 20.5694C63.9279 20.9362 64.1321 21.2704 64.4035 21.546C65.4015 22.6313 67.193 22.8736 68.4256 22.4853C68.4646 22.4612 68.4982 22.4293 68.5242 22.3916C68.5503 22.3539 68.5682 22.3112 68.5769 22.2662C68.6651 21.8729 68.7433 21.4763 68.8165 21.0813L69.0693 19.7686Z" fill="white"/>
<path d="M95.915 55.8009C95.0367 55.8009 94.1584 55.8009 93.2818 55.8009C93.2163 55.8071 93.1504 55.7948 93.0916 55.7655C93.0328 55.7361 92.9834 55.6909 92.9491 55.6349C91.8635 54.1291 90.7662 52.6223 89.6573 51.1143C89.6124 51.0529 89.5625 50.9915 89.5142 50.9317L89.4577 50.9417V55.5387C89.4577 55.7959 89.4577 55.7959 89.1965 55.7959H86.5583V46.1207C86.6199 46.1207 86.6898 46.1074 86.7596 46.1074C87.6296 46.1074 88.5012 46.1074 89.3728 46.1074C89.431 46.1029 89.4892 46.1142 89.5414 46.1403C89.5936 46.1663 89.6377 46.206 89.6689 46.2551C90.7046 47.6735 91.7459 49.0896 92.7928 50.5036C92.8327 50.56 92.8793 50.6114 92.9591 50.7077V46.1207C93.0523 46.1207 93.1254 46.1074 93.2036 46.1074H95.6771C95.7569 46.1074 95.8351 46.0975 95.915 46.0908V55.8009Z" fill="white"/>
<path d="M14.0689 56C13.698 55.9319 13.3221 55.8904 12.9595 55.7925C11.0066 55.2631 9.69088 54.0699 9.27337 52.0685C8.69118 49.2821 10.2182 46.7314 13.1341 46.0941C14.7277 45.7489 16.2563 45.9481 17.6386 46.8558C18.2152 47.2216 18.7024 47.7114 19.0645 48.2895C19.4266 48.8676 19.6544 49.5192 19.7312 50.1965C19.9224 51.6071 19.6496 52.9115 18.7547 54.0467C17.9613 55.054 16.8967 55.6216 15.6492 55.8722C15.3897 55.9236 15.1269 55.9585 14.8674 56H14.0689ZM16.8518 50.9599C16.827 50.7303 16.7903 50.5021 16.742 50.2762C16.5175 49.4232 15.9968 48.8257 15.1302 48.6017C14.2636 48.3776 13.4335 48.5336 12.7848 49.2091C12.2192 49.7949 12.0446 50.5201 12.1411 51.3167C12.3207 52.8103 13.6198 53.7081 15.0803 53.3463C16.1465 53.0841 16.8285 52.1531 16.8518 50.9599Z" fill="white"/>
<path d="M95.9149 36.9351C95.88 37.0695 95.85 37.2039 95.8118 37.3367C95.7231 37.673 95.5469 37.9799 95.3009 38.2262C95.0549 38.4725 94.7479 38.6494 94.4112 38.739C92.9657 39.1606 91.5834 39.0129 90.3009 38.1715C90.2178 38.1167 90.1346 38.052 90.0631 37.9906L89.9766 37.9192L91.0012 36.4555C91.3865 36.8076 91.8517 37.0611 92.3569 37.194C92.7261 37.3057 93.1168 37.3279 93.4963 37.2587C93.5752 37.2516 93.6508 37.2241 93.7159 37.1791C93.7999 37.1112 93.8585 37.017 93.8822 36.9119C93.8822 36.8471 93.7791 36.736 93.7026 36.716C93.3782 36.6264 93.0372 36.5733 92.7179 36.4903C92.2791 36.3947 91.8464 36.2734 91.4221 36.1269C90.7567 35.8697 90.3209 35.3917 90.2261 34.6648C90.1594 34.2831 90.2053 33.8902 90.3583 33.534C90.5113 33.1778 90.7647 32.8736 91.0877 32.6584C91.6135 32.3019 92.2387 32.1202 92.8742 32.139C93.7757 32.1047 94.6665 32.3436 95.4292 32.8244C95.5323 32.8924 95.6305 32.9688 95.7419 33.0501C95.3859 33.5197 95.0416 33.9728 94.7189 34.401C94.338 34.235 93.9837 34.0574 93.6111 33.9313C93.2549 33.7988 92.8702 33.761 92.495 33.8218C92.3436 33.8516 92.2039 33.9263 92.2222 34.0807C92.2374 34.1376 92.2658 34.1903 92.3051 34.2344C92.3444 34.2785 92.3934 34.3128 92.4484 34.3346C92.8742 34.4507 93.3167 34.5155 93.7408 34.6399C94.1738 34.7579 94.5961 34.9116 95.0034 35.0996C95.2305 35.2106 95.4279 35.3738 95.5794 35.5757C95.731 35.7777 95.8323 36.0127 95.875 36.2613C95.8885 36.3119 95.9046 36.3617 95.9232 36.4107L95.9149 36.9351Z" fill="white"/>
<path d="M26.7259 50.3856C26.6427 50.7408 26.5595 51.0959 26.4747 51.4527C26.157 52.8418 25.836 54.2308 25.5282 55.6215C25.4933 55.7875 25.4251 55.8041 25.2887 55.8024C24.4038 55.8024 23.5205 55.7941 22.6356 55.8024C22.6011 55.8085 22.5658 55.8075 22.5317 55.7994C22.4977 55.7912 22.4657 55.7762 22.4378 55.7552C22.4098 55.7341 22.3865 55.7076 22.3693 55.6772C22.3521 55.6468 22.3414 55.6131 22.3378 55.5784C21.7545 53.5205 21.1668 51.4644 20.5746 49.4098C20.2769 48.3693 19.9741 47.3304 19.6747 46.2899C19.6614 46.2401 19.6531 46.1886 19.6365 46.1156C19.708 46.1156 19.7712 46.104 19.8344 46.104C20.7842 46.104 21.7357 46.104 22.6871 46.104C22.8319 46.104 22.9017 46.1272 22.9367 46.2965C23.3109 48.1054 23.6968 49.9127 24.0794 51.7199C24.0953 51.8092 24.1323 51.8935 24.1875 51.9655C24.2208 51.8593 24.2574 51.7531 24.2857 51.6452C24.7292 49.8529 25.1728 48.0656 25.6164 46.2832C25.648 46.1571 25.6962 46.1007 25.8426 46.1023C26.4525 46.1123 27.0624 46.1123 27.6724 46.1023C27.8287 46.1023 27.8753 46.1671 27.9069 46.2965C28.3593 48.1286 28.8129 49.9608 29.2676 51.7929C29.2824 51.8678 29.3175 51.9373 29.369 51.9937C29.4344 51.6939 29.4988 51.3935 29.562 51.0926C29.8947 49.4828 30.2273 47.8747 30.57 46.2666C30.5833 46.2052 30.6698 46.1139 30.723 46.1139C31.7527 46.1057 32.784 46.1139 33.8136 46.1139C33.8339 46.1186 33.8535 46.1258 33.8718 46.1355C33.8369 46.2716 33.8036 46.411 33.7637 46.5471C32.9021 49.5498 32.0421 52.5514 31.1838 55.5518C31.1306 55.7394 31.0624 55.814 30.8511 55.8107C29.9878 55.7958 29.1228 55.8107 28.2579 55.8107H28.0267C27.6125 53.9968 27.195 52.1962 26.7891 50.3939L26.7259 50.3856Z" fill="white"/>
<path d="M51.9247 55.7893C51.8382 55.7893 51.7816 55.8009 51.7251 55.8009C50.747 55.8009 49.7689 55.8009 48.7925 55.8009C48.7359 55.809 48.6782 55.7968 48.6297 55.7664C48.5813 55.736 48.5452 55.6894 48.528 55.6349C48.1405 54.7354 47.7429 53.8426 47.3537 52.9431C47.3371 52.8768 47.2965 52.8189 47.2397 52.7806C47.1829 52.7423 47.1139 52.7263 47.046 52.7357C46.7698 52.7523 46.4904 52.7357 46.1843 52.7357V55.781H43.2617V46.1157C43.3283 46.1157 43.3931 46.1074 43.458 46.1074C45.0931 46.1074 46.7299 46.1074 48.365 46.1074C49.2616 46.1074 50.1066 46.295 50.8136 46.8891C51.4229 47.4051 51.811 48.1343 51.8981 48.927C51.9709 49.4329 51.9369 49.9485 51.7983 50.4405C51.6924 50.8242 51.5113 51.1831 51.2655 51.4964C51.0197 51.8098 50.714 52.0714 50.3661 52.266L50.2131 52.3573C50.2032 52.3688 50.1943 52.381 50.1864 52.3938L51.9247 55.7893ZM46.1843 50.1932C46.8813 50.1932 47.5599 50.2148 48.2353 50.1849C48.3324 50.1834 48.4283 50.1628 48.5173 50.1241C48.6064 50.0854 48.6869 50.0295 48.7542 49.9596C48.8215 49.8897 48.8742 49.8072 48.9093 49.7168C48.9445 49.6265 48.9613 49.5301 48.9589 49.4332C48.9589 49.0116 48.6944 48.7162 48.227 48.6731C47.8444 48.6382 47.4585 48.6449 47.0726 48.6382C46.7815 48.6382 46.4904 48.6382 46.1843 48.6382V50.1932Z" fill="white"/>
<path d="M68.6419 52.3822L70.3885 55.7826C70.3103 55.7909 70.2554 55.8009 70.2005 55.8009C69.2158 55.8009 68.2327 55.8009 67.248 55.8009C67.1931 55.8077 67.1376 55.7948 67.0916 55.7643C67.0455 55.7339 67.0119 55.688 66.9968 55.6349C66.6026 54.7238 66.2 53.8177 65.8058 52.9066C65.7909 52.8498 65.7555 52.8004 65.7064 52.768C65.6573 52.7355 65.5979 52.7223 65.5397 52.7307C65.3075 52.7423 65.0749 52.7423 64.8427 52.7307C64.6764 52.7307 64.6231 52.7788 64.6248 52.9448C64.6331 53.8078 64.6248 54.6691 64.6248 55.532V55.781H61.7305V46.1174C61.7987 46.1174 61.8685 46.1074 61.9384 46.1074C63.5619 46.1074 65.1848 46.1074 66.8072 46.1074C67.732 46.1074 68.602 46.2983 69.3222 46.9272C69.9287 47.4662 70.304 48.2173 70.3702 49.0249C70.4314 49.5324 70.3844 50.0471 70.2321 50.5351C70.009 51.2668 69.5123 51.8849 68.8448 52.2611L68.6419 52.3822ZM64.6281 50.1816C65.3567 50.1816 66.0603 50.2015 66.7606 50.1717C66.9023 50.165 67.0386 50.1151 67.151 50.0288C67.2635 49.9424 67.3466 49.8237 67.3894 49.6887C67.4329 49.5766 67.4485 49.4556 67.435 49.3361C67.4214 49.2166 67.3791 49.1022 67.3116 49.0026C67.2441 48.9029 67.1534 48.8211 67.0473 48.764C66.9413 48.7069 66.8229 48.6763 66.7024 48.6748C66.0603 48.6299 65.4149 48.6449 64.7712 48.6449C64.7408 48.6513 64.7127 48.6655 64.6896 48.6862C64.6665 48.7069 64.6493 48.7333 64.6398 48.7627C64.6248 49.2324 64.6281 49.702 64.6281 50.1816Z" fill="white"/>
<path d="M81.4251 55.7893C81.3536 55.7893 81.297 55.8009 81.2388 55.8009C80.2607 55.8009 79.2843 55.8009 78.3062 55.8009C78.2794 55.8059 78.2519 55.8052 78.2253 55.799C78.1988 55.7927 78.1739 55.7811 78.1521 55.7647C78.1304 55.7483 78.1123 55.7275 78.099 55.7038C78.0857 55.68 78.0776 55.6538 78.075 55.6267C78.0035 55.3529 77.9087 55.084 77.8272 54.8119C77.7989 54.7156 77.759 54.6725 77.6492 54.6741C76.5602 54.6741 75.4696 54.6741 74.3773 54.6741C74.2675 54.6741 74.2276 54.7206 74.201 54.8135C74.1161 55.099 74.0346 55.3844 73.9348 55.6649C73.9208 55.6965 73.8994 55.7244 73.8725 55.7463C73.8457 55.7682 73.814 55.7835 73.7801 55.791C72.7305 55.7993 71.6792 55.791 70.603 55.791C70.6263 55.7097 70.6396 55.6433 70.6629 55.5786C71.8084 52.4807 72.9529 49.3829 74.0962 46.2851C74.1094 46.225 74.1448 46.1722 74.1954 46.1371C74.246 46.1021 74.308 46.0873 74.369 46.0959C75.4723 46.1025 76.5763 46.1025 77.6808 46.0959C77.7346 46.0879 77.7894 46.1006 77.8342 46.1314C77.879 46.1622 77.9103 46.2088 77.922 46.2618C79.0719 49.3807 80.2241 52.4984 81.3785 55.6151C81.3968 55.6748 81.4068 55.7246 81.4251 55.7893ZM76.0457 49.025H75.9841C75.6664 50.0539 75.3504 51.0845 75.0277 52.1284H77.0005L76.0457 49.025Z" fill="white"/>
<path d="M41.906 48.6399H37.7076C37.4498 48.6399 37.4498 48.6398 37.4498 48.9037V49.6356H41.7846V52.173H41.5434C40.2543 52.173 38.9635 52.173 37.6727 52.173C37.5063 52.173 37.4348 52.2079 37.4448 52.3904C37.4614 52.6742 37.4448 52.958 37.4448 53.2617H41.8827V55.7909H34.5571V46.1057H34.78C37.0739 46.1057 39.3677 46.1057 41.6615 46.1057C41.8495 46.1057 41.9143 46.1489 41.9094 46.3447C41.8977 47.0351 41.9094 47.7238 41.9094 48.4142L41.906 48.6399Z" fill="white"/>
<path d="M2.93257 55.7909H0V46.1174C0.0681993 46.1174 0.133072 46.1074 0.197944 46.1074C1.83307 46.1074 3.46819 46.1074 5.10497 46.1074C5.97825 46.1074 6.80663 46.2833 7.50858 46.8492C8.1348 47.3544 8.53783 48.0842 8.63137 48.8822C8.75644 49.6116 8.64636 50.3617 8.31699 51.0247C8.09505 51.485 7.75631 51.8794 7.33438 52.1688C6.91245 52.4582 6.422 52.6324 5.91172 52.6743C5.01681 52.7672 4.10693 52.7224 3.20371 52.739H2.93257V55.7909ZM2.93257 50.1899C3.65449 50.1899 4.35977 50.2148 5.06172 50.18C5.15398 50.1739 5.24412 50.1496 5.32696 50.1087C5.40981 50.0677 5.48372 50.0108 5.54447 49.9413C5.60521 49.8717 5.65159 49.7909 5.68093 49.7034C5.71027 49.6159 5.72199 49.5235 5.71544 49.4315C5.72127 49.3362 5.70792 49.2407 5.67617 49.1506C5.64443 49.0606 5.59492 48.9777 5.53059 48.9071C5.46625 48.8364 5.38838 48.7793 5.30157 48.7391C5.21476 48.6989 5.12077 48.6765 5.02513 48.6731C4.34313 48.6382 3.65781 48.6532 2.97249 48.6482C2.96251 48.6482 2.95253 48.6631 2.93257 48.6764V50.1899Z" fill="white"/>
<path d="M1.98277 38.8335H0V32.2617C0.049902 32.2617 0.106457 32.2484 0.16634 32.2484C0.969761 32.2484 1.77485 32.2484 2.57993 32.2484C2.72132 32.2484 2.76956 32.3015 2.81281 32.4144C3.14549 33.3216 3.47817 34.2277 3.81085 35.1327C3.84079 35.2107 3.87572 35.2871 3.92895 35.4165C3.97386 35.307 4.00214 35.2506 4.02542 35.1808C4.36808 34.2515 4.70742 33.3205 5.05507 32.3928C5.07836 32.3331 5.15155 32.2517 5.20311 32.2517C6.07307 32.2434 6.94303 32.2517 7.83294 32.2517V38.8319H5.87512V34.9684H5.8169C5.7853 35.0448 5.75037 35.1211 5.72209 35.1991C5.28961 36.353 4.85934 37.5092 4.43129 38.6676C4.42611 38.6959 4.41534 38.7229 4.39961 38.747C4.38389 38.7711 4.36353 38.7919 4.3397 38.8081C4.31587 38.8243 4.28905 38.8356 4.2608 38.8414C4.23255 38.8472 4.20343 38.8473 4.17513 38.8418C4.00906 38.8285 3.84218 38.8285 3.67611 38.8418C3.53139 38.8534 3.46819 38.7987 3.41828 38.6643C2.99744 37.5109 2.56662 36.3591 2.13747 35.2074C2.10774 35.1128 2.05386 35.0276 1.98111 34.9601L1.98277 38.8335Z" fill="white"/>
<path d="M60.6225 48.6414H58.0525V55.7775H55.105V48.6414H52.5117V46.1189H60.6225V48.6414Z" fill="white"/>
<path d="M72.8252 38.8334V32.2566C72.8768 32.2566 72.9217 32.2434 72.9666 32.2434C74.1626 32.2434 75.3602 32.2434 76.5562 32.2434C77.0396 32.2369 77.5106 32.3954 77.8912 32.6927C78.2719 32.9901 78.5391 33.4083 78.6488 33.878C78.885 34.8887 78.5922 35.911 77.6041 36.4536C77.581 36.4724 77.5587 36.4924 77.5376 36.5134L78.7253 38.8368C77.9817 38.8368 77.2731 38.8368 76.5629 38.8368C76.5113 38.8368 76.4381 38.7538 76.4098 38.694C76.147 38.1082 75.8875 37.5224 75.638 36.9316C75.623 36.8711 75.5857 36.8185 75.5337 36.7841C75.4816 36.7497 75.4186 36.736 75.3569 36.7457C75.2307 36.7557 75.1039 36.7557 74.9776 36.7457C74.8379 36.7457 74.7947 36.7905 74.7963 36.9299C74.7963 37.5207 74.7963 38.1099 74.7963 38.7007C74.7963 38.7389 74.7963 38.7787 74.788 38.8301L72.8252 38.8334ZM74.7996 35.0331C75.2804 35.0331 75.7312 35.053 76.1786 35.0331C76.3208 35.0344 76.4578 34.9794 76.5594 34.8802C76.6611 34.7809 76.7191 34.6455 76.7209 34.5037C76.7209 34.4372 76.7076 34.3713 76.6817 34.31C76.6558 34.2487 76.6178 34.1933 76.57 34.1468C76.5223 34.1004 76.4657 34.064 76.4036 34.0398C76.3415 34.0156 76.2752 34.004 76.2085 34.0058C75.7811 33.9676 75.3486 33.9776 74.9178 33.9776C74.8907 33.9856 74.8662 34.0002 74.8464 34.0203C74.8266 34.0403 74.8122 34.065 74.8046 34.0921C74.7947 34.3792 74.7996 34.6846 74.7996 35.0248V35.0331Z" fill="white"/>
<path d="M26.3267 35.4945C26.3267 37.2636 25.1756 38.5996 23.4806 38.8834C22.3711 39.0692 21.3348 38.9049 20.4183 38.2345C19.5666 37.6138 19.1491 36.7508 19.1009 35.702C19.016 33.8599 20.232 32.4426 22.0733 32.1804C23.4723 31.9813 24.7132 32.3265 25.6413 33.4632C26.1041 34.0378 26.347 34.7578 26.3267 35.4945ZM22.6971 37.2205C23.6453 37.2205 24.3273 36.5235 24.3289 35.5443C24.3306 34.5652 23.6636 33.8698 22.7404 33.8649C21.7872 33.8649 21.1102 34.5453 21.0969 35.5244C21.0836 36.5036 21.7706 37.2172 22.6971 37.2205Z" fill="white"/>
<path d="M57.9911 38.9664C56.6854 38.915 55.5975 38.5017 54.8856 37.4081C53.6746 35.5461 54.4681 32.6999 57.1794 32.2054C58.3138 31.9979 59.3768 32.1822 60.3083 32.8875C60.6664 33.1532 60.9632 33.4925 61.1787 33.8824C61.3942 34.2723 61.5234 34.7038 61.5575 35.1478C61.6722 36.2945 61.3446 37.282 60.4763 38.0603C59.9164 38.5569 59.2101 38.8586 58.4636 38.9199L57.9911 38.9664ZM56.361 35.5295C56.361 36.4854 56.9948 37.189 57.8714 37.2189C58.55 37.2372 59.0923 36.9783 59.3851 36.3576C59.5477 36.0537 59.6165 35.7085 59.5828 35.3656C59.5491 35.0227 59.4143 34.6974 59.1954 34.4309C58.9819 34.1728 58.6923 33.9884 58.3677 33.9038C58.0432 33.8192 57.7001 33.8387 57.3873 33.9595C56.7519 34.1869 56.361 34.7827 56.361 35.5295Z" fill="white"/>
<path d="M84.9249 55.7926H82.0156C82.0156 55.7129 82.0056 55.6415 82.0056 55.5702C82.0056 52.4934 82.0056 49.4166 82.0056 46.3397C82.0056 46.1622 82.0455 46.0991 82.2352 46.1024C83.0669 46.1124 83.8986 46.1024 84.7303 46.1024C84.7951 46.1024 84.86 46.1024 84.9315 46.1124L84.9249 55.7926Z" fill="white"/>
<path d="M41.3271 38.8336H39.3576V33.9529H37.5928V32.2551H43.1003V33.9479H41.5849C41.3288 33.9479 41.3288 33.9479 41.3288 34.2134V38.8336H41.3271Z" fill="white"/>
<path d="M44.847 8.56992L45.6022 14.7883H41.9177L44.7954 8.56494L44.847 8.56992Z" fill="white"/>
<path d="M78.9764 15.6646C78.8716 17.2379 78.3111 18.529 76.9404 19.3571C76.5644 19.5862 76.1458 19.7369 75.7099 19.8002C75.2739 19.8636 74.8296 19.8382 74.4037 19.7256C73.5171 19.5065 73.0564 18.8643 72.8451 18.0129C72.4293 16.3251 73.3325 14.2955 74.8595 13.5089C75.6477 13.1029 76.5593 13.0047 77.4162 13.2334C78.2479 13.4392 78.6687 14.0632 78.86 14.8481C78.9138 15.118 78.9527 15.3905 78.9764 15.6646Z" fill="white"/>
</g>
<defs>
<clipPath id="clip0_280_29">
<rect width="95.9149" height="56" fill="white"/>
</clipPath>
</defs>
</svg>
