<svg width="16" height="16" viewBox="0 0 16 16" fill="none" xmlns="http://www.w3.org/2000/svg">
<path d="M14.6666 2.67334C13.9999 3.00001 13.3466 3.13268 12.6666 3.33334C11.9193 2.49001 10.8113 2.44334 9.74659 2.84201C8.68192 3.24068 7.98459 4.21534 7.99992 5.33334V6.00001C5.83659 6.05534 3.90992 5.07001 2.66659 3.33334C2.66659 3.33334 -0.121415 8.28868 5.33325 10.6667C4.08525 11.498 2.84059 12.0587 1.33325 12C3.53859 13.202 5.94192 13.6153 8.02259 13.0113C10.4093 12.318 12.3706 10.5293 13.1233 7.85001C13.3478 7.03512 13.4593 6.19325 13.4546 5.34801C13.4533 5.18201 14.4613 3.50001 14.6666 2.67268V2.67334Z" stroke="white" stroke-linecap="round" stroke-linejoin="round"/>
</svg>
