<svg width="20" height="20" viewBox="0 0 20 20" fill="none" xmlns="http://www.w3.org/2000/svg">
<path d="M9.99992 11.6667C11.3806 11.6667 12.4999 10.5474 12.4999 9.16671C12.4999 7.786 11.3806 6.66671 9.99992 6.66671C8.61921 6.66671 7.49992 7.786 7.49992 9.16671C7.49992 10.5474 8.61921 11.6667 9.99992 11.6667Z" stroke="white" stroke-linecap="round" stroke-linejoin="round"/>
<path d="M14.7141 13.8808L11.1783 17.4167C10.8657 17.7289 10.4421 17.9042 10.0003 17.9042C9.5586 17.9042 9.13493 17.7289 8.82242 17.4167L5.28576 13.8808C4.35344 12.9485 3.71853 11.7606 3.46133 10.4674C3.20412 9.17419 3.33616 7.83376 3.84076 6.61561C4.34535 5.39745 5.19984 4.35628 6.29616 3.62376C7.39248 2.89123 8.68139 2.50024 9.99992 2.50024C11.3184 2.50024 12.6074 2.89123 13.7037 3.62376C14.8 4.35628 15.6545 5.39745 16.1591 6.61561C16.6637 7.83376 16.7957 9.17419 16.5385 10.4674C16.2813 11.7606 15.6464 12.9485 14.7141 13.8808Z" stroke="white" stroke-linecap="round" stroke-linejoin="round"/>
</svg>
