<svg width="20" height="20" viewBox="0 0 20 20" fill="none" xmlns="http://www.w3.org/2000/svg">
<path d="M14.1667 9.99988C14.1667 10.4419 14.3423 10.8658 14.6548 11.1784C14.9674 11.491 15.3913 11.6665 15.8333 11.6665C16.2754 11.6665 16.6993 11.491 17.0118 11.1784C17.3244 10.8658 17.5 10.4419 17.5 9.99988C17.4999 8.28202 16.9101 6.61626 15.8292 5.2811C14.7483 3.94593 13.2418 3.0223 11.5616 2.66462C9.88137 2.30695 8.1293 2.53691 6.5983 3.31606C5.06731 4.09521 3.85018 5.37632 3.15043 6.9452C2.45068 8.51408 2.31071 10.2756 2.75394 11.9353C3.19716 13.595 4.1967 15.0523 5.58545 16.0634C6.9742 17.0745 8.66798 17.5783 10.3836 17.4904C12.0992 17.4026 13.7326 16.7284 15.0108 15.5807M14.1667 9.99988C14.1667 12.3011 12.3012 14.1665 10 14.1665C7.69881 14.1665 5.83333 12.3011 5.83333 9.99988C5.83333 7.6987 7.69881 5.83322 10 5.83322C12.3012 5.83322 14.1667 7.6987 14.1667 9.99988ZM10.8333 9.99988C10.8333 10.4601 10.4602 10.8332 10 10.8332C9.53976 10.8332 9.16667 10.4601 9.16667 9.99988C9.16667 9.53964 9.53976 9.16655 10 9.16655C10.4602 9.16655 10.8333 9.53964 10.8333 9.99988Z" stroke="white" stroke-linecap="round" stroke-linejoin="round"/>
</svg>
