<svg width="31" height="30" viewBox="0 0 31 30" fill="none" xmlns="http://www.w3.org/2000/svg">
<path d="M13 17.5L26.75 3.75M13 17.5L17.375 26.25C17.4298 26.3697 17.5179 26.4711 17.6287 26.5422C17.7394 26.6133 17.8683 26.6511 18 26.6511C18.1316 26.6511 18.2605 26.6133 18.3713 26.5422C18.4821 26.4711 18.5701 26.3697 18.625 26.25L26.75 3.75M13 17.5L4.24997 13.125C4.13029 13.0702 4.02887 12.9821 3.95777 12.8713C3.88667 12.7605 3.84888 12.6316 3.84888 12.5C3.84888 12.3684 3.88667 12.2395 3.95777 12.1287C4.02887 12.0179 4.13029 11.9298 4.24997 11.875L26.75 3.75" stroke="white" stroke-width="2" stroke-linecap="round" stroke-linejoin="round"/>
</svg>
